<svg xmlns:xlink="http://www.w3.org/1999/xlink" width="25" height="24" viewBox="0 0 25 24" fill="none" xmlns="http://www.w3.org/2000/svg"><path d="M21.5 5.31967V18.3297C21.5 18.6597 21.1801 18.8898 20.8501 18.7998C18.4661 18.1208 16.073 18.1177 13.687 19.3077C13.486 19.4077 13.249 19.2717 13.249 19.0467V5.85276C13.249 5.78576 13.2701 5.71877 13.3091 5.66477C13.9321 4.80977 14.896 4.21471 16.019 4.07871C17.831 3.85871 19.5731 4.07879 21.2141 4.86179C21.3891 4.94479 21.5 5.12667 21.5 5.31967ZM8.97998 4.07968C7.16798 3.85968 5.42591 4.07976 3.78491 4.86276C3.61091 4.94576 3.5 5.12777 3.5 5.32077V18.3308C3.5 18.6608 3.8199 18.8908 4.1499 18.8008C6.5339 18.1218 8.92699 18.1187 11.313 19.3087C11.514 19.4087 11.751 19.2727 11.751 19.0477V5.85373C11.751 5.78673 11.7299 5.71974 11.6909 5.66574C11.0669 4.81074 10.104 4.21568 8.97998 4.07968Z" fill="#8E8767"></path></svg>