<svg xmlns:xlink="http://www.w3.org/1999/xlink" width="25" height="24" viewBox="0 0 25 24" fill="none" xmlns="http://www.w3.org/2000/svg"><path d="M12.7148 21.0011H11.7148C10.7148 21.0011 10.2148 20.5011 10.2148 19.5011V4.50108C10.2148 3.50108 10.7148 3.00108 11.7148 3.00108H12.7148C13.7148 3.00108 14.2148 3.50108 14.2148 4.50108V19.5011C14.2148 20.5011 13.7148 21.0011 12.7148 21.0011ZM21.2148 19.5011V9.50108C21.2148 8.50108 20.7148 8.00108 19.7148 8.00108H18.7148C17.7148 8.00108 17.2148 8.50108 17.2148 9.50108V19.5011C17.2148 20.5011 17.7148 21.0011 18.7148 21.0011H19.7148C20.7148 21.0011 21.2148 20.5011 21.2148 19.5011ZM7.21484 19.5011V13.5011C7.21484 12.5011 6.71484 12.0011 5.71484 12.0011H4.71484C3.71484 12.0011 3.21484 12.5011 3.21484 13.5011V19.5011C3.21484 20.5011 3.71484 21.0011 4.71484 21.0011H5.71484C6.71484 21.0011 7.21484 20.5011 7.21484 19.5011Z" fill="#9E62FF"></path></svg>