<svg xmlns:xlink="http://www.w3.org/1999/xlink" width="24" height="24" viewBox="0 0 25 25" fill="none" xmlns="http://www.w3.org/2000/svg"><path d="M21.3164 14.7471C21.3164 16.7471 20.3164 17.7471 18.3164 17.7471H14.3164V20.9971H16.8164C17.2264 20.9971 17.5664 21.3371 17.5664 21.7471C17.5664 22.1571 17.2264 22.4971 16.8164 22.4971H7.81641C7.40641 22.4971 7.06641 22.1571 7.06641 21.7471C7.06641 21.3371 7.40641 20.9971 7.81641 20.9971H10.3164V17.7471H6.31641C4.31641 17.7471 3.31641 16.7471 3.31641 14.7471C3.31641 14.6091 3.42841 14.4971 3.56641 14.4971H21.0664C21.2044 14.4971 21.3164 14.6091 21.3164 14.7471ZM18.3164 3.74707H6.31641C4.31641 3.74707 3.31641 4.74707 3.31641 6.74707V12.7471C3.31641 12.8851 3.42841 12.9971 3.56641 12.9971H21.0664C21.2044 12.9971 21.3164 12.8851 21.3164 12.7471V6.74707C21.3164 4.74707 20.3164 3.74707 18.3164 3.74707Z" fill="#2ABDFF"></path></svg>