<svg xmlns:xlink="http://www.w3.org/1999/xlink" width="24" height="24" viewBox="0 0 24 24" fill="none" xmlns="http://www.w3.org/2000/svg"><path fill-rule="evenodd" clip-rule="evenodd" d="M4 4C2.34315 4 1 5.34315 1 7V18C1 19.6569 2.34315 21 4 21H20C21.6569 21 23 19.6569 23 18V7C23 5.34315 21.6569 4 20 4H4ZM3 12.2676V11C3 10.4485 3.44812 10 4.00115 10H19.9989C20.5519 10 21 10.4485 21 11V12.2676C20.7058 12.0974 20.3643 12 20 12H16C15.4477 12 14.9935 12.5284 14.7645 13.1028C14.4438 13.9072 13.789 14.8571 12 14.8571C10.29 14.8571 9.48213 13.9893 9.1936 13.2102C8.96576 12.595 8.49905 12 7.91447 12H4C3.63571 12 3.29417 12.0974 3 12.2676ZM19.9989 8C20.3498 8 20.6868 8.06029 21 8.17109V7C21 6.44772 20.5523 6 20 6H4C3.44772 6 3 6.44772 3 7V8.17109C3.31318 8.06029 3.65018 8 4.00115 8H19.9989Z" fill="#FC72FF"></path></svg>